Patient4_TMGait_0pt6_01_right_34_EMG.mot
version=1
nRows=33
nColumns=33
inDegrees=no
endheader
time	1LAddLong	2LGlutMax	3LGlutMed	4LIliopsoas	5LSemiMemb	6LBicFemLong	7LRecFem	8LVastMed	9LVastLat	10LGasMed	11LTibAnt	12lTibPost	13LPeroneusLong	14LSol	15LExtDigLong	16LFlexDigLong	17RAddLong	18RGlutMax	19RGlutMed	20RIliopsoas	21RSemiMemb	22RBicFemLong	23RRecFem	24RVastMed	25RVastLat	26RGasMed	27RTibAnt	28RTibPost	29RPeroneusLong	30RSol	31RExtDigLong	32RFlexDigLong
41.64	-0.003662	0.3952	-0.12497	0.010681	0.021973	-0.0737	0.24216	-0.007172	-0.05127	-0.023193	-0.009918	0.014038	0.036774	-0.004272	0.042114	0.011749	-0.031433	-0.16113	0.18814	-0.045624	0.12512	0.10254	-0.45822	-0.15686	-0.10422	0.058746	-0.006561	-0.054779	-0.061493	-0.30884	-0.002899	-0.010681
41.641	0.012054	0.40802	-0.11337	0.010681	0.059052	-0.027313	0.20538	-0.001221	-0.14557	0.003967	-0.011749	0.003204	0.046234	0.036011	0.02182	0.002136	-0.007782	-0.11459	0.37399	-0.077362	0.13947	-0.11841	-0.44922	-0.064545	0.043335	0.084229	-0.013428	0.079193	-0.15808	-0.057983	-0.005646	-0.003967
41.642	0.009766	0.39276	-0.096283	-0.021057	0.064697	0.001221	0.11841	-0.012512	-0.17609	-0.015411	0.008087	0.005951	0.047607	0.11047	0.01709	0.008698	-0.018158	-0.17364	0.090637	0.003967	0.11597	-0.16052	-0.40802	-0.013733	0.16174	0.051575	0.029449	0.10452	-0.21729	0.04837	-0.001678	-0.003815
41.643	0.010986	0.38971	-0.093231	-0.03067	0.054474	0.14114	0.043182	-0.019531	-0.14267	-0.017853	0.028992	-0.001984	0.039215	0.089264	0.000916	0.014648	-0.003052	-0.19333	0.233	0.05188	-0.17731	-0.06485	-0.31769	-0.047913	0.088806	-0.008087	0.074615	-0.009918	-0.23117	0.43289	-0.003052	-0.015564
41.644	-0.001678	0.36682	-0.075073	-0.015106	0.065765	0.24262	0.096741	-0.018005	-0.078125	-0.014801	-0.041962	0.009308	0.041962	0.11032	-0.0177	0.010376	0.005951	-0.22507	0.168	0.074158	-0.15442	-0.083923	-0.16174	0.03891	0.09613	-0.052948	0.064697	-0.11063	-0.12299	0.61127	-0.000916	-0.012207
41.645	-0.008392	0.42679	-0.037994	0.034485	0.065308	0.15503	0.099487	-0.009918	-0.028381	0.003967	-0.062561	0.003204	-0.013733	0.095978	-0.013428	0.004578	0.04364	-0.16525	-0.10178	-0.014801	-0.15091	-0.15243	-0.099182	-0.014191	0.10468	-0.065308	0.040741	-0.12634	-0.08316	0.70328	-0.00061	-0.013733
41.646	-0.02121	0.43045	0.000916	0.045471	0.040131	0.15106	0.12039	-0.013428	-0.028076	0.020599	-0.063019	0.003967	-0.021515	0.096741	-0.00412	0.019226	0.046539	-0.19852	-0.074921	-0.042572	-0.25436	-0.18707	-0.23651	0.059662	0.044556	-0.040436	0.017242	0.015564	0.1506	0.513	-0.003357	-0.014954
41.647	-0.014648	0.39642	-0.016937	0.054474	-0.030365	0.20798	0.12665	-0.014191	0.010834	0.044403	-0.097961	0.002594	-0.002899	0.11841	-0.028534	0.021362	0.055695	-0.22415	0.2713	0.007935	-0.30502	-0.22049	-0.22003	0.13702	0.028229	-0.008545	0.044708	0.067596	0.30792	0.2214	-0.001526	-0.024872
41.648	-0.002289	0.39063	-0.010986	0.017853	-0.086365	0.16937	0.18341	-0.014648	0.073395	0.014954	0.03067	-0.009918	0.026245	0.12482	0.03479	0.003052	0.0383	-0.17334	0.29755	0.031738	0.019379	-0.30731	-0.23727	0.2034	0.093842	-0.019379	0.069885	0.029449	0.3157	0.38788	-0.004425	-0.029602
41.649	0.014191	0.35172	0.001526	-0.001526	-0.033569	0.072937	0.19394	-0.016785	0.064697	0.017548	0.14725	0.00824	0.068665	0.13626	0.097198	0.01236	-0.001373	-0.17624	0.003357	0.053101	-0.003967	-0.19119	-0.11505	0.18539	0.065002	-0.025635	0.07431	0.006866	-0.15503	0.30182	-0.001221	-0.023804
41.65	0.002899	0.29739	0.005035	0.002289	-0.02533	0.096893	0.10529	-0.00946	0.16434	0.011292	-0.006409	0.006866	0.1268	0.12451	0.068665	0.011749	-0.011292	-0.27115	-0.13092	0.055084	0.066833	-0.16464	-0.16403	0.15091	0.050964	-0.002289	0.059052	-0.000763	-0.24963	-0.019226	-0.001526	-0.019531
41.651	0.002594	0.3064	-0.00473	-0.021973	0.009766	0.022736	0.010071	-0.002289	0.18906	0.006256	0.003815	-0.000916	0.1239	0.084076	-0.011139	-0.002594	0.015869	-0.31754	-0.18356	0	0.28778	-0.11719	-0.10895	0.086517	0.014954	0.006561	0.060577	-0.072937	-0.068359	0.031586	-0.002747	-0.019836
41.652	0.003204	0.2536	0.006561	-0.013733	0.050507	-0.12543	-0.035553	0.000458	0.12268	-0.002136	-0.010681	0.004425	0.018463	0.046234	-0.06134	-0.008698	0.040741	-0.28625	-0.1265	0.015869	0.21515	0.043335	-0.041351	0.00824	-0.016479	-0.006104	0.014954	-0.2626	0.20676	-0.27649	-0.00412	-0.022583
41.653	-0.001984	0.25269	0.014343	-0.006409	0.045319	-0.22903	-0.016174	0.006866	0.034027	0.029755	-0.018768	0.003967	-0.18341	0.019989	-0.015259	0.00412	0.030518	-0.26108	-0.15091	0.023499	0.083313	0.046539	-0.081329	-0.013885	-0.045166	-0.022278	0.022736	-0.30777	0.42816	-0.96847	-0.002899	-0.02655
41.654	-0.0177	0.29053	0.007477	0.016785	0.026855	-0.21027	-0.037231	0.005493	0.071716	0.031738	-0.009003	0.003815	0.47318	0.00885	-0.018311	-0.000763	-0.001221	-0.32227	0.71854	0.037689	0.072632	0.072937	-0.048218	-0.019226	-0.033417	-0.017853	0.012665	0.11353	0.45136	-0.67017	-0.002899	-0.021515
41.655	-0.01236	0.17517	0.045013	0.024872	0.018616	-0.20111	-0.046387	0.009918	0.1294	-0.004883	0.032043	0.003662	0.61188	0.037384	0.023193	0.011139	-0.015106	-0.31845	0.9613	0.006409	0.17807	0.1561	-0.006409	-0.004425	0.007935	-0.008087	-0.037079	0.19196	0.37674	-0.1091	-0.001984	-0.027008
41.656	0.003204	0.1326	0.06485	0.024414	-0.001831	-0.27298	-0.022278	0.014648	0.13016	-0.011749	0.030823	0.003662	-0.010376	0.080566	0.079803	0.002136	0.003357	-0.31754	-0.29602	0.003357	0.35645	0.085297	0.033417	-0.042877	-0.004883	0.000916	-0.093384	0.13657	0.16342	-0.029449	-0.00473	-0.016022
41.657	-0.002899	0.11765	0.037689	0.007019	0.003357	-0.1593	0.006714	0.010529	0.04837	0.021515	0.027466	0.003052	-0.2626	0.035858	-0.036316	0.005646	0.009308	-0.31479	-0.084991	0.000763	0.2327	0.14221	0.004425	-0.000763	-0.016785	0.005188	-0.14618	0.068665	-0.022888	0.39597	0.001221	-0.014038
41.658	0.001678	0.037842	0.014038	-0.019989	-0.028687	0.10834	0.008392	0.004272	-0.069885	0.037689	0.037994	0.002289	-0.015259	0.006866	-0.087738	-0.006104	-0.015869	-0.32318	0.30121	-0.02655	-0.090027	0.25421	-0.010071	-0.005341	0.001221	-0.02121	-0.19836	0.011902	0.063019	0.55557	-0.00061	-0.016785
41.659	-0.00946	0.064087	0.070953	-0.016174	-0.041199	0.26413	0.017395	0.007477	-0.1944	-0.005188	0.027924	0.006714	0.26916	0.098572	0.006104	0.008545	0.009613	-0.26718	0.11871	-0.028381	-0.047607	0.076447	-0.043488	-0.087585	-0.027466	-0.01236	0.027008	0.017853	0.095978	0.37552	-0.002289	-0.021973
41.66	-0.016785	0.026398	0.010376	-0.014191	0.001526	0.28671	0.043793	0.010529	-0.22888	-0.022583	0.028992	0.004272	-0.29938	0.057373	0.058899	-0.003204	0.011444	-0.31754	0.12863	-0.020599	-0.02655	-0.11063	-0.063019	-0.06958	-0.084686	-0.009766	0.19714	-0.09613	0.093994	0.2124	-0.003052	-0.020447
41.661	-0.013275	-0.1062	0.041656	-0.004425	0.006866	0.38513	0.041809	0.004578	-0.18539	0.000458	0.02533	0.022736	-0.49576	-0.014343	0.019836	0.002136	0.021057	-0.33829	0.09201	0.001678	-0.031891	0.044861	-0.1062	-0.039215	-0.089111	-0.00824	0.21729	0.01297	0.039825	-0.070953	-0.001373	-0.023346
41.662	0.002899	-0.11658	0.089569	0.020599	0	0.3746	0.035248	-0.002289	-0.11902	0.019684	-0.003052	-0.00946	-0.062561	-0.007324	-0.03952	0.005798	0.028534	-0.28992	0.066376	-0.002594	-0.003052	0.14252	-0.10529	-0.059052	-0.049591	-0.006714	0.13336	-0.016327	0.031433	-0.12421	-0.002136	-0.021057
41.663	0.021515	-0.16556	0.090485	0.018311	0.000916	0.28686	0.028992	0.006561	-0.047607	0.052032	-0.021362	0.001831	0.051422	-0.06897	-0.035706	0.003815	0.019226	-0.2417	0.092468	0.03952	-0.025024	0.13168	-0.089417	-0.031738	0.01358	0.020599	0.10529	-0.024261	-0.01297	-0.16724	-0.002136	-0.02182
41.664	0.048523	-0.23239	0.041962	0.013733	-0.024567	0.18585	0.00412	0.02182	-0.003357	0.027008	-0.034637	0.010223	-0.043488	-0.062103	-0.016479	0.008392	-0.002441	-0.26382	0.47592	-0.023956	0.11993	0.14664	-0.022583	-0.009766	0.026398	0.031281	0.071869	-0.028381	-0.14114	-0.26016	-0.000153	-0.025482
41.665	0.056915	-0.24826	-0.01709	0.005646	-0.079803	-0.24445	0.010681	0.019989	0.020905	0.025635	-0.040588	0.001373	-0.16617	-0.040131	-0.014191	0.026245	-0.023956	-0.26825	0.30167	-0.028992	0.24262	-0.031891	-0.034485	0.069427	0.037079	0.026703	0.081329	-0.015411	-0.298	-0.12192	0.000458	-0.022125
41.666	0.045471	-0.26718	-0.041199	-0.000153	-0.033417	-0.46814	0.018463	0.026398	0.017853	0.029907	-0.027924	0.007477	0.000916	-0.024261	-0.003357	0.017548	-0.024414	-0.22186	0.042725	0.0177	0.19196	0.024872	-0.037384	0.091248	0.015869	0.009766	0.11795	-0.023804	-0.37979	0.10391	0	-0.024109
41.667	0.034485	-0.2385	-0.031281	0.001984	0.036011	-0.40375	0.002899	0.021515	0.04425	0.028076	-0.02182	0.006409	0.071564	0.004883	0.052338	0.025787	-0.015106	-0.17654	-0.000305	-0.00061	0.16571	0.21255	-0.016327	0.11658	0.012207	-0.043945	0.10422	-0.021362	-0.21683	0.12497	-0.001221	-0.031738
41.668	0.037994	-0.27557	-0.014343	0.01358	-0.007629	-0.23773	0.002289	0.006866	0.055084	0.067596	-0.016327	0.010681	-0.045471	0.031586	0.049133	0.025482	-0.012665	-0.2063	0.044098	-0.040283	0.067291	0.1683	-0.064545	0.12985	-0.010834	-0.084229	-0.00885	-0.019989	0.35324	0.15823	0.001678	-0.023956
41.669	0.032959	-0.30899	-0.026398	0.018311	-0.051575	-0.3241	-0.016479	-0.006561	0.14954	0.076141	-0.003204	0.009308	-0.053711	0.048065	0.03418	0.041504	-0.031281	-0.13962	0.030212	0.003967	-0.007782	0.006561	-0.1442	0.15289	0.026093	-0.066376	-0.01358	-0.019073	0.52643	-0.043182	-0.001221	-0.026093
41.67	0.029449	-0.31052	0.008545	0.009003	-0.086975	-0.48233	-0.025177	-0.018005	0.26001	0.1004	-0.012054	0.012817	-0.28259	0.058136	0.014496	0.041962	-0.030212	-0.13123	0.062866	0.058441	0.04715	-0.26123	-0.1001	0.030212	0.009155	-0.053406	-0.026398	-0.014648	0.40604	-0.13748	-0.002136	-0.017853
41.671	-0.000153	-0.33539	0.03479	-0.007629	-0.10971	-0.45776	-0.022125	-0.020905	0.2507	0.11398	-0.065613	0.007477	-0.25742	0.063782	0.019379	0.028992	0.020905	-0.077667	0.009613	0.18036	0.13016	-0.327	-0.063019	-0.069427	-0.023041	-0.037994	-0.014343	-0.016174	0.24643	0.014954	-0.00473	-0.016632
41.672	-0.018005	-0.35278	-0.064545	0.004425	-0.083313	-0.45548	0.00473	-0.003052	0.23621	0.14725	-0.030212	0.007629	-0.002289	0.072174	0.003967	0.031433	0.016937	-0.084381	0.33203	0.18662	0.066833	-0.31982	-0.064392	-0.05722	-0.009155	-0.000305	0.00824	0.015106	0.15747	0.054016	-0.005188	-0.017242
